<svg id="Capa_1" enable-background="new 0 0 511.856 511.856" height="512" viewBox="0 0 511.856 511.856" width="512" xmlns="http://www.w3.org/2000/svg"><g><path d="m509.552 130.172c-1.927-2.347-4.803-3.707-7.84-3.707h-23.973c.641-6.002.563-12.075-.238-18.122-2.667-20.146-13.019-38.046-29.15-50.405-14.622-11.203-32.407-16.616-50.611-15.545v-12.583c0-5.602-4.542-10.144-10.144-10.144h-136.938c-5.602 0-10.144 4.542-10.144 10.144v24.852h-106.001c-5.602 0-10.144 4.542-10.144 10.144v61.66h-18.153l-12.976-54.33c-1.091-4.566-5.172-7.787-9.866-7.787h-27.981c-5.602 0-10.144 4.542-10.144 10.144s4.542 10.144 10.144 10.144h19.975l62.564 261.949-23.693 60.552c-21.161 2.508-37.63 20.547-37.63 42.371 0 23.534 19.147 42.682 42.682 42.682s42.681-19.147 42.681-42.682c0-8.209-2.335-15.88-6.368-22.395h232.465c-4.033 6.515-6.368 14.186-6.368 22.395 0 23.534 19.147 42.682 42.682 42.682s42.681-19.147 42.681-42.682-19.146-42.681-42.681-42.681c-.655 0-288.237-.002-288.237-.002l19.247-49.192h284.834c16.464 0 30.577-13.2 34.32-32.094l37.115-186.956c.591-2.978-.183-6.064-2.11-8.412zm-390.261 341.731c-12.349 0-22.394-10.046-22.394-22.394s10.046-22.393 22.394-22.393 22.393 10.046 22.393 22.393c0 12.348-10.046 22.394-22.393 22.394zm327.485-22.394c0 12.349-10.046 22.394-22.393 22.394-12.349 0-22.394-10.046-22.394-22.394s10.046-22.393 22.394-22.393c12.347-.001 22.393 10.045 22.393 22.393zm33.47-256.861h-94.001l-11.379-45.895h114.492zm-13.14 66.184h-64.453l-11.379-45.897h84.944zm-133.23 78.515-14.437-58.228h67.343l14.437 58.228zm-88.246 0-14.436-58.228h67.344l14.437 58.228zm-89.047 0-13.907-58.228h67.617l14.436 58.228zm197.381-190.594 11.379 45.895h-67.343l-11.379-45.895zm-88.245 0 11.379 45.895h-67.344l-11.379-45.895zm16.409 66.182 11.38 45.897h-67.344l-11.379-45.897zm-76.865 45.897h-67.433l-10.962-45.897h67.015zm109.146 0-11.379-45.897h67.343l11.38 45.897zm142.982-147.826c.684 5.172.65 10.361-.098 15.459h-59.553v-63.754c29.326-2.302 55.744 18.794 59.651 48.295zm-196.59-71.053h116.652v86.512h-95.857v-61.66c0-5.602-4.542-10.144-10.144-10.144h-10.651zm-116.144 34.996h116.652v51.517h-116.652zm32.818 71.804 11.379 45.895h-66.831l-10.961-45.895zm262.752 190.594h-18.106l-14.437-58.228h55.395l-8.432 42.474c-1.808 9.129-7.873 15.754-14.42 15.754z"/><circle cx="10" cy="74.695" r="10"/></g></svg>